<svg xmlns="http://www.w3.org/2000/svg" width="35" height="35"><path fill="#95E1D3" paint-order="stroke fill markers" fill-rule="evenodd" d="M33.065 27.89l-14.471 5.987a1.495 1.495 0 0 1-1.188 0L2.936 27.89A1.5 1.5 0 0 1 2 26.5v-23a1.5 1.5 0 0 1 2.073-1.385h.003l.013.006L18 7.876 31.91 2.12l.014-.005.003-.001A1.5 1.5 0 0 1 34 3.5v23a1.5 1.5 0 0 1-.935 1.39zM16.5 10.501L5 5.744v19.753l11.5 4.759V10.502zM31 5.744l-11.5 4.758v19.754l11.5-4.76V5.745zm-9.12 6.89l5.5-2.5a1.5 1.5 0 0 1 1.241 2.731l-5.5 2.5a1.5 1.5 0 0 1-1.241-2.731zm0 5.5l5.5-2.5a1.5 1.5 0 0 1 1.24 2.731l-5.5 2.5a1.5 1.5 0 0 1-1.241-2.73zm0 5.5l5.5-2.5a1.5 1.5 0 0 1 1.241 2.731l-5.5 2.5a1.5 1.5 0 0 1-1.241-2.731zM8 10c.221 0 .431.048.62.134l5.5 2.5a1.5 1.5 0 0 1-1.24 2.731l-5.5-2.5A1.5 1.5 0 0 1 8 10zm0 5.5a1.5 1.5 0 0 1 .62.134l5.5 2.5a1.5 1.5 0 1 1-1.24 2.73v.001l-5.5-2.5A1.5 1.5 0 0 1 8 15.5zM8 21c.221 0 .431.048.62.134l5.5 2.5a1.5 1.5 0 0 1-1.24 2.731l-5.5-2.5A1.5 1.5 0 0 1 8 21z"/></svg>