<svg xmlns="http://www.w3.org/2000/svg" width="36" height="35"><path fill="#95E1D3" paint-order="stroke fill markers" fill-rule="evenodd" d="M32.5 34h-29A1.5 1.5 0 0 1 2 32.5v-29A1.5 1.5 0 0 1 3.5 2h29A1.5 1.5 0 0 1 34 3.5v29a1.5 1.5 0 0 1-1.5 1.5zM31 5H5v26h26V5zM8.5 6.5H14a1.5 1.5 0 0 1 0 3H9.5V14a1.5 1.5 0 1 1-3 0V6.5h2zM6.5 22a1.5 1.5 0 1 1 3 0v4.5H14a1.5 1.5 0 1 1 0 3H6.5V22zM22 6.5h7.5V14a1.5 1.5 0 1 1-3 0V9.5H22a1.5 1.5 0 1 1 0-3zm0 20h4.5V22a1.5 1.5 0 0 1 3 0v7.5H22a1.5 1.5 0 0 1 0-3z"/></svg>